<svg xmlns="http://www.w3.org/2000/svg" xmlns:xlink="http://www.w3.org/1999/xlink" viewBox="0 0 354 130.604">
  <defs>
    <style>
      .cls-1 {
        fill: url(#linear-gradient);
      }

      .cls-2 {
        fill: url(#linear-gradient-2);
      }

      .cls-3 {
        fill: url(#linear-gradient-3);
      }

      .cls-4 {
        fill: url(#linear-gradient-5);
      }

      .cls-5 {
        fill: url(#linear-gradient-6);
      }

      .cls-6 {
        fill: url(#linear-gradient-7);
      }
    </style>
    <linearGradient id="linear-gradient" y1="0.5" x2="1" y2="0.5" gradientUnits="objectBoundingBox">
      <stop offset="0" stop-color="#ffed43"/>
      <stop offset="0.038" stop-color="#fbe337"/>
      <stop offset="0.115" stop-color="#f4d324"/>
      <stop offset="0.196" stop-color="#f0c919"/>
      <stop offset="0.281" stop-color="#efc615"/>
      <stop offset="0.669" stop-color="#d98d3d"/>
      <stop offset="0.888" stop-color="#cc6037"/>
      <stop offset="1" stop-color="#c33431"/>
    </linearGradient>
    <linearGradient id="linear-gradient-2" y1="0.5" y2="0.5" xlink:href="#linear-gradient"/>
    <linearGradient id="linear-gradient-3" y1="0.5" y2="0.5" xlink:href="#linear-gradient"/>
    <linearGradient id="linear-gradient-5" y1="0.5" y2="0.5" xlink:href="#linear-gradient"/>
    <linearGradient id="linear-gradient-6" y1="0.5" y2="0.5" xlink:href="#linear-gradient"/>
    <linearGradient id="linear-gradient-7" y1="0.5" y2="0.5" xlink:href="#linear-gradient"/>
  </defs>
  <g id="Illustratie_4" data-name="Illustratie 4" transform="translate(-81 -132.884)">
    <g id="Illustratie_4-2" data-name="Illustratie 4" transform="translate(258 198.186)">
      <g id="Group_459" data-name="Group 459" transform="translate(-177 -65.302)">
        <path id="Path_10882" data-name="Path 10882" class="cls-1" d="M32.118,20.442h.337l-.337.674v1.4q4.436-.786,4.436-2.077l2.077.337q5.164-.337,9.543-.337h.336q6.739,0,16.064,7.524a20.588,20.588,0,0,1,2.414,5.783v3.426A24.246,24.246,0,0,1,63.225,47.79a91.209,91.209,0,0,0-6.85,8.53h-.337v-.674l1.01-1.347h-.674A85.945,85.945,0,0,1,29.029,70.02,29.321,29.321,0,0,1,21.5,71.03Q26.389,76.7,39.3,86.079q1.347.619,16.4,10.556,12.576,7.8,30.1,17.126v.337h-1.4q-3.369-1.291-3.369-1.74l-.73.393h-.674q-.337,0-.337-.393-1.291.337-2.021,2.414,2.021.674,2.021,1.347a2.4,2.4,0,0,1-1.347.73l-1.74-.393v.393q0,.674,1.067.674v1.01h-.337q-.787,0-15.385-8.872A201,201,0,0,1,36.216,93.6Q31.332,91.31,18.131,80.242H17.064q-1.955,3.089-5.1,14.71-.668,2.753-6.85,7.862H4.436l-.674-1.007v-.337a9.508,9.508,0,0,1,1.01-3.092V98.04H4.436q-.113.9-4.1,3.089H0v-.73Q11.96,64.856,16.733,53.958q8.2-18.809,8.2-21.562-1.853,0-8.2,4.771h-.67l.337-.674v-.674q-1.909,0-8.534,6.176H7.524V41.6l4.436-5.1.674-1.01v-.337H11.96l-4.1,3.424a.595.595,0,0,1-.674-.674A54.621,54.621,0,0,1,22.9,25.942q8.534-2.19,8.534-5.166Zm-10.612,47.5H21.9l6.12-1.347-.337-.674Q21.5,66.71,21.506,67.944Zm1.4-3.426v.337h.674a2.586,2.586,0,0,1,1.01-.337v.337q8.31-1.458,9.939-3.369h-.339Q26.67,63.284,22.9,64.52Zm.337-1.684h.337q6.12-1.234,6.176-2.077a2.034,2.034,0,0,1-.393-1.01q13.082-4.436,17.463-8.872.448,0,5.447-5.84h.337v.337a3.828,3.828,0,0,0-.674,1.74h.337q4.436-3.424,4.436-7.524V37.511q-1.01,0-1.01-.674,1.74-.337,1.74-1.684,0-1.8-6.85-3.426a50.219,50.219,0,0,0-11.96-1.347q-3.313,0-6.521,11.96-1.342,1.462-8.867,20.5Zm4.1-29.086v.393q.506,0,1.01-1.067v-.337q-.506,0-1.012,1.013Zm.337,6.521h.337q1.01-.337,1.01-2.021-.561-.006-1.349,2.009Zm7.524,48.907v.674q5.277,4.1,6.521,4.1-1.4-.9-1.4-1.74Zm9.883,7.475a1.9,1.9,0,0,0,2.077,1.4h.337V97.7a3.515,3.515,0,0,1-2.018-1.066ZM59.8,41.621v.73q.506,0,1.01-1.067v-.337h-.337q-.674.1-.674.663Zm3.426-11.567v.337q.111.674.674.674v-.352a.595.595,0,0,0-.678-.67Zm4.1,78.938a30.494,30.494,0,0,0,8.2,4.771l.337-.674a57.121,57.121,0,0,0-7.862-4.1Zm18.81,5.447h1.01q.674.111.674.674-.674,0-.674,1.01H86.47l.337-.674v-.337h-.674Z" transform="translate(0 12.07)"/>
        <path id="Path_10883" data-name="Path 10883" class="cls-2" d="M111.126,15.3a6.09,6.09,0,0,1,4.884,3.144h-3.144a33.055,33.055,0,0,0-11.51,2.807v.337h.337q9.994-.674,14.712-.674h.674v.674h-1.4a.3.3,0,0,1-.337-.337L96.47,24.065q0,.394-3.482,1.01v.73l5.221-1.067h.337v.674q-23.415,6.177-23.415,9.1-11.4,9.543-16.4,17.856-7.693,13.589-7.693,20.945,0,7.524,7.693,11.175a10.585,10.585,0,0,0,2.414.337A43.273,43.273,0,0,0,84.229,64.213,97.5,97.5,0,0,0,87.71,48.491h.73l-.73,6.626q1.066,0,1.8-5.221a9.947,9.947,0,0,1-.393-2.807V46.075h.73q.337,5.279.337,7.3a44.033,44.033,0,0,1-1.74,9.433q1.964-1.74,4.549-11.51,1.179-9.438,2.077-9.438a.3.3,0,0,0,.337.337,13.641,13.641,0,0,0-.674,4.212v.337h.337a32.763,32.763,0,0,0,1.74-8.759,5.548,5.548,0,0,1-.674-2.077l.674-.337q1.01,0,2.134,5.567,0,13.87-11.567,35.655A41.77,41.77,0,0,1,64.289,94.254a35.9,35.9,0,0,1-11.847,2.134Q38.46,92.514,38.46,75.394q0-19.483,15.722-35.262,5.109-5.614,21.338-16.064A80.727,80.727,0,0,1,111.126,15.3Zm-65.3,38.807q-5.279,12.186-5.279,17.8.73,11.117,2.47,14.314h.337v-.674a18.4,18.4,0,0,1-1.067-7.356,83.7,83.7,0,0,1,1.067-12.577l-.337-.674a99.842,99.842,0,0,1,3.144-10.5v-.334Zm.337,14.654a46.83,46.83,0,0,0-1.74,7.019A37.853,37.853,0,0,0,46.5,86.225h.337v-.674a38.661,38.661,0,0,1-1.01-5.951l.332-.681a3.093,3.093,0,0,1,0-2.807,2.6,2.6,0,0,1-.337-1.067q.674-5.567.674-5.951v-.337ZM46.5,57.924v.337h.337q7.691-10.667,7.693-12.184A29.729,29.729,0,0,0,46.5,57.924Zm2.077-8.03v.337q.73,0,.73-.674V49.22q-.732.116-.73.674Zm.393,34.591v.337q.674,3.537,3.482,3.537h1.067v-.393Zm.674-15.722V69.1q.73,0,.73-.674v-.339q-.732.113-.73.673Zm0,20.945V90.1a4.017,4.017,0,0,0,3.144,1.74h.73V91.5a18.191,18.191,0,0,1-3.874-1.8Zm.332-41.217q7.691-7.243,12.247-12.247,4.212-2.527,4.212-4.156Q59.3,36.245,51.048,46.743A2.3,2.3,0,0,0,49.975,48.491Zm.733,17.862q.393,0,3.482-7.693,3.761-8.588,15.722-20.994v-.337Q58.12,46.088,57,51.311,53.852,54.893,50.708,66.354ZM55.93,90.106h4.212l1.74-.393v-.345H56.655q-.725.113-.724.73Zm16.452-8.03v.337q1.121,0,7.3-7.356V74.72h-.337q-6.963,6.507-6.961,7.35Zm9.77-2.807q0,.45-6.626,6.963h.337a59.847,59.847,0,0,0,6.626-6.626h.337v-.337Zm2.077-8.429v.393h.337a10.638,10.638,0,0,0,1.4-2.807q-.846.169-1.74,2.414Zm8.03-10.107v.337h.393q3.817-11.06,3.817-14.314-2.3,3.87-4.208,13.977ZM94,20.921v.337q2.919,0,3.144.337a14.033,14.033,0,0,1,3.537-1.4v-.674Z" transform="translate(22.709 9.034)"/>
        <path id="Path_10884" data-name="Path 10884" class="cls-3" d="M98.958,16.781q-.2,2.809-.2,3.482l.374-.337a.56.56,0,0,1,.407.617q-.407,2.3-.407,2.527h-.374l-.2-2.19h-.17a10.934,10.934,0,0,0-1.155,4.436V25.6a1.056,1.056,0,0,1,.577.337,3.6,3.6,0,0,0,.2-1.236h.374q-.918,5.11-6.691,26.5Q88.633,63.331,87.1,67.316a7.26,7.26,0,0,1-1.358,3.817c0-.224-.057-.337-.17-.337a5.655,5.655,0,0,1-.955,3.145,3.778,3.778,0,0,0-.2,1.291v.282h.374q0,.674-.374.674l-.374-.337a39.126,39.126,0,0,1-1.909,6.626v.954h.544v.339q-.272,0-.748.617l.2.617v.617h-.407V85l-.954,2.246a3.905,3.905,0,0,0-.17,1.236V89.1h.374v.674a1.212,1.212,0,0,1-.577.9h-.2l.2-.617h-.2q-.577,0-.954,2.863,0,.563,1.732,1.236c.113,0,.17-.094.17-.282l1.358.282q.477,0,5.163-.282,2.65.282,3.431.282l.374-.282a1.188,1.188,0,0,0,.781.282H93a6.7,6.7,0,0,0,1.732-.282c.135,0,.2.094.2.282l1.909-.282h2.48c.135,0,.2.094.2.282a.988.988,0,0,1,.544-.282,49.38,49.38,0,0,0,8.051-.617c.113,0,.17.094.17.282l8.051-.954.374.337a1.042,1.042,0,0,1,.748-.337q.2,0,.2.337a1.054,1.054,0,0,1,.577-.337q.646,0,3.26-.282v.282q2.785-.617,12.806-1.909v.674q-.407,0-.407.954h-.577l-.954.282v-.282a45.055,45.055,0,0,1-8.588,1.236h-.369a1.077,1.077,0,0,0-.781.337q-.17,0-.17-.337a67.564,67.564,0,0,1-9.749.954v.617h.17a87.953,87.953,0,0,0,10.53-.617v.617a6.438,6.438,0,0,0-2.309.674,7.465,7.465,0,0,0-1.113-.337l-1.936.337q0,.619.577.617a1.056,1.056,0,0,0,.577-.337,1.056,1.056,0,0,1,.577.337q3.567-.337,8.8-1.291v-.282l-.954.282a1.188,1.188,0,0,1-.781-.282l-1.155.282h-1.909V94.5h1.528l1.909-.337V94.5l.407-.337c.113,0,.17.113.17.337l.954-.337h1.358c.113,0,.17.113.17.337a4.356,4.356,0,0,1,2.513-.617h.954c.248,0,.374.318.374.954L136.4,94.5v.337a9.4,9.4,0,0,1,4.212-.954l.2.617q0,.619-.374.617h-.407a1.144,1.144,0,0,1-.748-.282,7.44,7.44,0,0,1-2.48.954h-2.683v.282q.067.619.374.617a24.136,24.136,0,0,0,5.366-.9,1.144,1.144,0,0,0,.748.281q-.918,2.247-2.106,2.246-22.16,3.143-26.166,3.143v-.337l-.407.337h-2.107l-1.909.282v.337h5.536a18.047,18.047,0,0,0,2.887-.337l.17.674a56.323,56.323,0,0,1-8.207,1.239v-.286c-.113,0-.17.094-.17.282q-3.532.337-5.163.337H100.86l-1.155.282c-.113,0-.17-.094-.17-.282l-1.358.282H93.217c-.135,0-.2-.094-.2-.282l-.374.282H91.111c-.25,0-.374-.207-.374-.617.113,0,.17-.094.17-.282l1.358.282a6.669,6.669,0,0,0,1.7-.282l.407.282a3.817,3.817,0,0,1,1.325-.282q0-.674-.374-.674a1.08,1.08,0,0,1-.781.337v-.619H95.5v-.337a15.566,15.566,0,0,0-4.585-.617v-.337l-.374.337H88.424a41.463,41.463,0,0,1-5.163-.337l-2.472.623q-4.111-.619-4.755-.617a1.808,1.808,0,0,1-1.155.617,1.909,1.909,0,0,0-1.358-.9V100.5l.577-1.909-.17-.617a5.918,5.918,0,0,1,.577-2.19l-.407-.337h-.748a2.491,2.491,0,0,1-.781,1.909H72.2a21.332,21.332,0,0,1,1.325-4.436h.2q.577,0,.577,1.573h.374q.374,0,.374-.617l-.17-3.817q.849-1.066,3.8-12.633a13.667,13.667,0,0,0,.954-5.053q-.374,0-.374-.617.714-.506,1.909-5.672Q87.321,46.1,94.183,19.93h.2a4.488,4.488,0,0,1,.17,1.291h.388Q95.828,17.4,96.27,17.4l.2.617a46.444,46.444,0,0,1-1.528,6.344l.748.954a22.9,22.9,0,0,0,2.853-8.534ZM74.3,98.928v.282q.068.674.374.674V98.93Zm2.48-18.362h.2v.34q0,.619-.407.617l-.17-.617Zm.781,22.46.954.337h6.112v.617h-7.27v-.331Zm4.008-16.733.374.282Q81.43,89.1,80.984,89.1v-.282a16.82,16.82,0,0,1,.582-2.526Zm3.806,17.07h.781v.617h-.781Zm4.789-66.37v.954h.2a13.005,13.005,0,0,0,.544-2.527q-.239,0-.748,1.573Zm.954-4.1v2.19h.2a4.653,4.653,0,0,1,.577-1.909V31.6q.646-.056,1.113-3.761V27.5a12.484,12.484,0,0,0-1.325,4.436q-.237.957-.573.956Zm1.325,69.514h.577v.617h-.577Zm.577-76.476v.954q.305,0,.781-1.291h-.2a1.056,1.056,0,0,1-.581.336Zm4.415,70.748H94.745v.337h2.109v.337l.374-.337h4.959c0-.41-.126-.617-.374-.617a23.342,23.342,0,0,0-3.057.282c-.135,0-.2-.094-.2-.282ZM95.7,101.742v.337h2.48q.2,0,.2.337.237-.337,1.325-.337v-.337H97.226a1.067,1.067,0,0,1-.748-.282,1.2,1.2,0,0,1-.783.282Zm6.691-5.334v.282a9.46,9.46,0,0,1,2.276.337,1.055,1.055,0,0,1,.577-.337v-.282Zm3.431,0v.282h.781v-.282Zm1.732,0v.282H108.7c0-.41-.192-.617-.577-.617a1.056,1.056,0,0,1-.576.329Zm3.634-.337v.337h.954V96.07Zm1.325.337h1.732l-.2-.617c-.113,0-.17.094-.17.282l-.984-.282q-.372.051-.372.611Zm4.212,5.334h3.057v.674H119q-.17,0-.17-.337a5.536,5.536,0,0,1-1.909.617l-.2-.617Zm16.237-1.859v.282q0,1.29-9.918,1.573l-.985.337v-.332l-.374.337h-.954v-.623Q122.837,101.455,132.957,99.882Zm1.358,0h.954v.617h-.954Zm8.763-6.963q1.155.337,1.155.617l.374-.282h.2v.617h-1.528l-.954.282-.2-.617v-.282a1.225,1.225,0,0,0,.957-.336Zm2.887,1.909h.17q.407.057.407.617h-.577Z" transform="translate(42.629 9.908)"/>
        <path id="Path_10885" data-name="Path 10885" class="cls-3" d="M119.408,12.939q-.251,2.4-.251,2.979l.46-.288q.5.1.5.528-.5,1.971-.5,2.163h-.46l-.251-1.874H118.7a7.209,7.209,0,0,0-1.42,3.8v.24a1.524,1.524,0,0,1,.709.288,2.25,2.25,0,0,0,.251-1.058h.46q-1.128,4.374-8.229,22.68a116.642,116.642,0,0,1-5.638,13.791q-.711,2.739-1.67,3.267c0-.192-.07-.288-.208-.288a3.881,3.881,0,0,1-1.169,2.691,2.359,2.359,0,0,0-.251,1.105v.24h.46q0,.577-.46.577l-.46-.288a26.019,26.019,0,0,1-2.34,5.67v.817H99.4v.288a1.648,1.648,0,0,0-.919.528l.251.528v.528h-.5v-.528l-1.169,1.921a2.414,2.414,0,0,0-.208,1.058v.528h.461v.577q0,.385-.709.768h-.251l.251-.528h-.251q-.711,0-1.169,2.451,0,.477,2.13,1.058c.138,0,.208-.08.208-.24l1.67.24q.584,0,6.349-.24,3.257.24,4.219.24l.46-.24a1.886,1.886,0,0,0,.954.24h.919a11.58,11.58,0,0,0,2.13-.24c.167,0,.251.081.251.24l2.34-.24h3.049c.167,0,.251.081.251.24a1.475,1.475,0,0,1,.668-.24,86.773,86.773,0,0,0,9.9-.528c.138,0,.208.081.208.24l9.9-.817.46.288a1.59,1.59,0,0,1,.919-.288q.251,0,.251.288a1.521,1.521,0,0,1,.709-.288q.8,0,4.01-.24v.24q3.424-.528,15.746-1.633v.577q-.5,0-.5.817h-.709l-1.169.24v-.24a78.37,78.37,0,0,1-10.567,1.058h-.456a1.647,1.647,0,0,0-.954.288c-.14,0-.208-.1-.208-.288a118.333,118.333,0,0,1-11.987.817v.528h.208q6.642,0,12.948-.528v.528a10.7,10.7,0,0,0-2.841.577,12.4,12.4,0,0,0-1.379-.288l-2.386.288q0,.53.709.528a1.524,1.524,0,0,0,.709-.288,1.524,1.524,0,0,1,.709.288q4.386-.288,10.815-1.105v-.24l-1.169.24a1.886,1.886,0,0,1-.954-.24l-1.42.24h-2.34v-.528h1.88l2.34-.288v.288l.5-.288c.138,0,.208.1.208.288l1.169-.288h1.67c.138,0,.208.1.208.288a7.246,7.246,0,0,1,3.09-.528h1.169q.458,0,.46.817l2.8-.288v.288a15.878,15.878,0,0,1,5.18-.817l.251.528c0,.353-.159.528-.46.528h-.5a1.807,1.807,0,0,1-.919-.24,11.918,11.918,0,0,1-3.049.817h-3.3v.242c.056.353.208.528.46.528a41.622,41.622,0,0,0,6.6-.768,1.807,1.807,0,0,0,.919.24q-1.128,1.923-2.589,1.921-27.235,2.691-32.162,2.691v-.288l-.5.288h-2.583l-2.34.24v.288h6.809a31.556,31.556,0,0,0,3.55-.288l.208.577A97.568,97.568,0,0,1,130.9,87.281v-.24c-.14,0-.208.08-.208.24q-4.345.288-6.349.288h-2.589l-1.42.24c-.14,0-.208-.081-.208-.24l-1.67.24h-6.1c-.167,0-.251-.081-.251-.24l-.46.24h-1.88q-.46,0-.46-.528c.138,0,.208-.081.208-.24l1.67.24a11.531,11.531,0,0,0,2.088-.24l.5.24a6.52,6.52,0,0,1,1.629-.24q0-.577-.46-.577a1.652,1.652,0,0,1-.954.288v-.528h1.169v-.288a27.038,27.038,0,0,0-5.638-.528v-.288l-.46.288h-2.6q-3.05,0-6.349-.288l-3.049.528q-5.054-.53-5.848-.528a2.656,2.656,0,0,1-1.42.528,2.6,2.6,0,0,0-1.67-.768v-.288l.709-1.633-.208-.528a3.9,3.9,0,0,1,.709-1.874l-.5-.288h-.919A1.88,1.88,0,0,1,86.96,81.9H86.5a14.457,14.457,0,0,1,1.624-3.812h.251q.711,0,.709,1.346h.46c.305,0,.46-.177.46-.528L89.8,75.64q1.043-.913,4.678-10.815A8.657,8.657,0,0,0,95.642,60.5q-.46,0-.46-.528.878-.433,2.34-4.852,7.559-17.105,16-39.5h.251a2.763,2.763,0,0,1,.208,1.105h.5q1.085-3.267,1.629-3.267l.251.528a29.974,29.974,0,0,1-1.88,5.43l.919.817a16.127,16.127,0,0,0,3.509-7.3Zm-30.324,70.3v.24q.084.577.46.577v-.817Zm3.049-15.712h.251v.288q0,.53-.5.528l-.208-.528Zm.954,19.221,1.169.288h7.518v.528H92.836v-.288Zm4.93-14.314.46.24q-.627,2.163-1.169,2.163V74.59a10.77,10.77,0,0,1,.714-2.163ZM102.7,87.039h.954v.528H102.7Zm5.885-56.8v.817h.251A8.269,8.269,0,0,0,109.5,28.9q-.283,0-.91,1.341Zm1.169-3.507v1.874H110a3.149,3.149,0,0,1,.709-1.633V25.63q.8-.048,1.379-3.219v-.288a8.633,8.633,0,0,0-1.629,3.8q-.283.811-.7.811Zm1.629,59.483h.709v.528h-.709Zm.709-65.446v.817q.375,0,.954-1.105h-.251a1.524,1.524,0,0,1-.684.288Zm5.43,60.544h-3.3V81.6h2.589v.288l.46-.288h6.1c0-.352-.159-.528-.46-.528q-1.338,0-3.76.24c-.167,0-.251-.08-.251-.24Zm-2.13,4.324v.288h3.049q.251,0,.251.288a2.749,2.749,0,0,1,1.629-.288v-.288h-3.049a1.676,1.676,0,0,1-.919-.24,1.908,1.908,0,0,1-.949.24Zm8.229-4.565v.24a16.42,16.42,0,0,1,2.8.288,1.52,1.52,0,0,1,.709-.288v-.24Zm4.219,0v.24h.954v-.24Zm2.13,0v.24h1.42q0-.528-.709-.528a1.524,1.524,0,0,1-.7.288Zm4.469-.288v.288H135.6v-.283Zm1.629.288h2.13l-.251-.528c-.14,0-.208.081-.208.24l-1.212-.24a.468.468,0,0,0-.447.528Zm5.18,4.565H145v.577h-.954c-.14,0-.208-.1-.208-.288a8.973,8.973,0,0,1-2.34.528l-.251-.528Zm19.965-1.59v.242q0,1.1-12.2,1.346l-1.212.288v-.288l-.46.288h-1.169v-.52q2.6,0,15.049-1.35Zm1.67,0h1.169v.528h-1.169Zm10.777-5.958q1.42.288,1.42.528l.46-.24h.251v.528h-1.88l-1.169.24-.251-.528v-.24a1.923,1.923,0,0,0,1.18-.291Zm3.55,1.633h.208a.477.477,0,0,1,.5.528h-.709Z" transform="translate(51.075 7.636)"/>
        <path id="Path_10886" data-name="Path 10886" class="cls-4" d="M156.118,9.482a1.975,1.975,0,0,0,1.086.293,2.6,2.6,0,0,0,1.379-.293,13.54,13.54,0,0,0,2.508.293h.251l1.672-.293a2.165,2.165,0,0,0,2.174,0,13.617,13.617,0,0,0,2.216.293l1.923-.293.544.293c.39,0,.585-.1.585-.293q2.386.294,2.716.293,2.634,0,22.071.251v.293l.544-.293q2.424.294,3.009.293v.544h-.251c-.2,0-.293-.084-.293-.251l-.544.251c-.2,0-.293-.084-.293-.251l-.544.251-.544-.251q-1.925.169-1.923.544a2.226,2.226,0,0,1,.251.837h2.759A1.892,1.892,0,0,0,198,13.078a7.573,7.573,0,0,0-2.759,1.379,16.9,16.9,0,0,1-1.672-.293,1.979,1.979,0,0,1-.837.293c-.167,0-.251-.1-.251-.293l-1.923.293h-4.135q-.544.084-.544.544a7.474,7.474,0,0,0,1.923.293v.251q0,.418-.837.837h-2.216a20.654,20.654,0,0,0-3.009.293,2.608,2.608,0,0,0-1.379-.293,1.979,1.979,0,0,1-.837.293v-.293a1.977,1.977,0,0,1-1.086.293v.544h3.553v.544q-10.033.251-15.676.837a1.972,1.972,0,0,1-.837-.293q-14.34.837-20.4.837-1.422,0-3.846,4.93h-.544v-.248a3.162,3.162,0,0,0,.544-1.379q-.878,0-6.9,10.993l.293.585a1.983,1.983,0,0,1,.837-.293q0,.627,19.27,1.379,0,.377,2.759.544a.477.477,0,0,1-.544.544h-1.379v.585q1.964.251,2.174.251v.544h-3.553l-1.379.293v.544q1.923,0,1.923,1.086,0,.585,1.379.585v.544a31.979,31.979,0,0,1-6.9.837h-4.93l-1.672.251a2.97,2.97,0,0,0-1.379-.251,24.552,24.552,0,0,1-6.605,1.086l-1.086-.293-2.215.585a1.991,1.991,0,0,0-.837-.293,12.183,12.183,0,0,0-3.3,4.975q-6.362,12.038-6.354,13.46l1.379.293h3.052a23.007,23.007,0,0,1,3.846.293,18.8,18.8,0,0,1,3.846-.293l.585.293a1.982,1.982,0,0,1,1.086-.293l1.63.293a.259.259,0,0,0,.293-.293l13.5.837v.544l-1.672.293q0-.584-.544-.585,0,1.463-8.528,1.672v.293H140.4l.585-.293q1.338.294,1.338.544l.585-.251h.251q.293,0,.293.251l.544-.251,4.39.251a2.227,2.227,0,0,0,.837-.251,10.717,10.717,0,0,0,2.467.544,8,8,0,0,1,1.964-.293v.544q-.921,0-1.129,1.672-3.009,0-3.009.251a2.226,2.226,0,0,0-.837-.251q-3.009.169-3.009.544,0,1.379-2.508,1.379h-6.311a.258.258,0,0,1-.293-.293l-.544.293h-.544a.258.258,0,0,1-.293-.293l-.544.293q-12.541.294-17.64.293-1.088,1-5.769,10.993h-.3l-.251-.544q3.846-8.361,4.39-8.528-.418-1.129-.837-1.129h-.251a7.084,7.084,0,0,1-1.923,3.3h-.293a17.073,17.073,0,0,0,.837-3.846.259.259,0,0,0-.293.293q-4.135-.835-4.135-1.672V66.8l.585-.837v-.544q-1.672-.293-1.672-.837.627-1.63,3.594-2.216.585-1.964,10.744-21.737,11.537-20.441,11.537-20.943V18.6l-.544-.837-.544.251h-.293v-.251q.041-.584,3.052-1.672a3.641,3.641,0,0,1,2.467-2.467l.293-1.379-1.379-.251a2.227,2.227,0,0,1-.837.251l-.251-.544,4.1-1.379a13.712,13.712,0,0,1,2.215-.293,1.983,1.983,0,0,1,1.086.293l9.113-.544.544.251a32.1,32.1,0,0,0,4.138-.549ZM115.612,56.588a17.682,17.682,0,0,0-1.63,3.846h.837a14.4,14.4,0,0,0,1.338-3.846Zm.544-.544V56.3q.584,0,.585-.544V55.5q-.587.089-.585.549Zm4.975,9.907V66.5h.544l1.672.293q1.379-.377,1.379-.837Zm3.846.293V66.5h1.379v-.251ZM133.8,11.691h.837v.544H133.8Zm6.061,14.045v.544a2.226,2.226,0,0,0-.251.837h-.585v-.293q.417-1.082.835-1.082Zm-.544-12.959v.293h.837a.477.477,0,0,0,.544-.544l-.544-.293h-.293q-.546.091-.546.55Zm9.066-.8v.251l1.379.293h.585a2.115,2.115,0,0,0,1.086-.293,1.975,1.975,0,0,0,1.086.293h.557v-.544c-.363,0-.544-.1-.544-.293a24.518,24.518,0,0,1-4.145.3Zm3.3,5.225v.256H153.9v-.251Zm1.672-4.975h.837v-.544H153.9q-.539.094-.539.552Zm.837,3.3v.293h1.086v-.293Zm.544-3.846-.293.544h.293a15.611,15.611,0,0,1,2.467-.251v-.293Zm.837,5.225v.55h1.638a.477.477,0,0,0-.544-.544Zm3.3-1.63v.251H160.8v-.251Zm4.39,1.63v.293h1.129v-.283Zm6.608-.245q0,.21.837.8l3.052-.544q1.086.21,1.086.544a10.656,10.656,0,0,1,2.467-.251v-.289l-1.924-.254-3.846.251Z" transform="translate(63.229 5.599)"/>
        <path id="Path_10887" data-name="Path 10887" class="cls-5" d="M169.77,19.123h.278l-.278.557v1.158q3.658-.649,3.658-1.716l1.716.278q4.266-.278,7.884-.278h.278q5.567,0,13.264,6.216a17.007,17.007,0,0,1,1.994,4.771v2.829a20.027,20.027,0,0,1-3.108,8.767,75.335,75.335,0,0,0-5.659,7.05h-.278V48.2l.835-1.113H189.8a70.992,70.992,0,0,1-22.585,12.986,24.219,24.219,0,0,1-6.215.835,92.328,92.328,0,0,0,14.7,12.429q1.113.511,13.543,8.719Q199.633,88.5,214.1,96.2v.278h-1.159q-2.783-1.067-2.783-1.431l-.6.318H209q-.278,0-.278-.318-1.067.278-1.67,1.994,1.67.557,1.67,1.113a1.982,1.982,0,0,1-1.113.6l-1.431-.318v.318q0,.557.881.557v.835h-.27q-.651,0-12.708-7.329a166.025,166.025,0,0,1-20.918-13.264q-4.035-1.909-14.934-11.038h-.881q-1.624,2.545-4.221,12.151-.557,2.274-5.659,6.494h-.557l-.557-.835v-.282a7.854,7.854,0,0,1,.835-2.545v-.278h-.278q-.094.743-3.386,2.545h-.278v-.6q9.878-29.358,13.821-38.357,6.771-15.537,6.772-17.813-1.53,0-6.772,3.943h-.557l.278-.557v-.557q-1.578,0-7.051,5.1h-.278v-.318l3.658-4.221.557-.835v-.278h-.557L149.734,34.1a.491.491,0,0,1-.557-.557,45.117,45.117,0,0,1,12.986-9.878q7.049-1.808,7.05-4.267ZM161,58.361h.318l5.056-1.113-.278-.557Q161,57.341,161,58.361Zm1.159-2.829v.278h.557a2.136,2.136,0,0,1,.835-.278v.278q6.864-1.206,8.21-2.783h-.283Q165.279,54.512,162.163,55.531Zm.278-1.392h.278q5.054-1.019,5.1-1.716a1.681,1.681,0,0,1-.318-.835q10.806-3.658,14.424-7.329a31.686,31.686,0,0,0,4.5-4.824h.278v.278a3.162,3.162,0,0,0-.557,1.431h.278a7.935,7.935,0,0,0,3.658-6.216V33.222q-.835,0-.835-.557,1.431-.278,1.431-1.392,0-1.484-5.659-2.829a41.482,41.482,0,0,0-9.878-1.113q-2.737,0-5.381,9.878-1.107,1.209-7.323,16.93Zm3.386-24.025v.318q.417,0,.835-.881v-.278q-.417.008-.835.843Zm.278,5.381h.278q.835-.278.835-1.67-.464,0-1.113,1.67Zm6.216,40.4v.557q4.359,3.386,5.38,3.386-1.161-.741-1.159-1.431Zm8.162,6.169a1.567,1.567,0,0,0,1.716,1.159h.278v-.278a2.9,2.9,0,0,1-1.67-.881ZM192.635,36.61v.609q.417,0,.835-.881v-.278h-.278q-.557.086-.557.549Zm2.829-9.554v.278q.092.557.557.557v-.278a.491.491,0,0,0-.555-.558Zm3.386,65.209a25.189,25.189,0,0,0,6.772,3.943l.278-.557a47.187,47.187,0,0,0-6.494-3.386Zm15.537,4.5h.835q.557.092.557.557-.557,0-.557.835h-.557l.278-.557v-.278h-.557Z" transform="translate(84.582 11.29)"/>
        <path id="Path_10888" data-name="Path 10888" class="cls-6" d="M250.265,0h.674V.617q-3.763,1.01-15.329,5.567v.337h.617q3.93-.674,4.6-.674l.337.674q-11.4,4.884-12.406,4.884v.666h.954a16.455,16.455,0,0,1,5.221-1.629v.337q-.394.45-14.375,6.85-10.338,4.942-12.072,6.85v.282q.111.9,1.629,1.629a82.017,82.017,0,0,1,14.037-1.909h2.3a11.709,11.709,0,0,1,4.267.617,2.459,2.459,0,0,1,1.291-.337h1.291q0,1.629,4.884,1.629l.337.674a2.238,2.238,0,0,1-.954.337q0,.674,3.593,2.583l.617,2.3v2.3q-1.236,4.83-10.107,12.406-.674,0-11.736,9.77-11.68,11.117-15.666,13.7v-.324l.954-1.291v-.337l-5.567,4.267v.617a6.012,6.012,0,0,1,2.976-1.629,155.6,155.6,0,0,1-18.586,13.42l-.674-.337a27.391,27.391,0,0,1-5.567,2.92q-2.863-1.4-2.92-1.966a57.866,57.866,0,0,0,7.187-6.176v-1.01h-.337q-1.684,0-6.521,3.93a.595.595,0,0,1-.674-.674q13.027-10.387,32.961-25.436,12.3-10.338,19.881-17.632l.674-2.92v-.674q0-.674-2.3-1.629-7.475,0-19.54,4.6h-.337v-.674a4.335,4.335,0,0,0,2.92-1.629v-.337a45.09,45.09,0,0,1-5.567.674q-.9-.056-1.629-1.966-2.247,0-5.221-3.593,0-10.78,17.295-18.926,1.066-1.4,14.375-7.187Q241.842,0,250.265,0ZM177.83,84.843a.646.646,0,0,0,.674.617q3.763-.954,23.133-16.957h-.617q-7.806,5.167-19.6,14.042Q178.673,84.841,177.83,84.843Zm5.567-8.2v.674h1.629a139.955,139.955,0,0,0,13.36-10.107h-.337q-.394,0-14.314,9.433Zm14.037-1.909h.337q1.458-.674,1.629-1.347h-.337q-1.527.671-1.635,1.346Zm3.593-46.044v1.291q.111.674,1.629,1.347v-.337a4.337,4.337,0,0,1-1.01-2.3Zm2.92-2.583v.954h.954V26.72a.547.547,0,0,0-.617-.617Zm0,2.583v.337a5.4,5.4,0,0,0,4.261,2.3h.281v-.674a12.669,12.669,0,0,0-3.874-1.966Zm11.117-10.107h.617q.617,0,12.746-5.9v-.619q-2.308,0-13.369,6.515Zm16.957,16.62v.674c.075.449.282.674.617.674h.337v-.674c0-.449-.207-.674-.617-.674Zm.954-3.593v.337q.73,0,4.267,2.976h.337v-.674q-.787-1.627-4.267-2.639Zm1.347-1.909-.337.617a13.49,13.49,0,0,1,4.212,2.3v-.337q0-2.583-3.593-2.583Zm.954,5.84v.674a.636.636,0,0,0,.674.617v-.617a.595.595,0,0,0-.679-.676Z" transform="translate(103.06 0)"/>
      </g>
    </g>
  </g>
</svg>
